<svg xmlns="http://www.w3.org/2000/svg" viewBox="0 0 16 16" width="16" height="16">
  <defs>
    <linearGradient id="grad" x1="0%" y1="0%" x2="100%" y2="100%">
      <stop offset="0%" style="stop-color:#6366f1;stop-opacity:1" />
      <stop offset="100%" style="stop-color:#8b5cf6;stop-opacity:1" />
    </linearGradient>
  </defs>
  
  <!-- Fondo circular -->
  <circle cx="8" cy="8" r="7.5" fill="url(#grad)" stroke="#ffffff" stroke-width="0.5"/>
  
  <!-- Cabeza simplificada -->
  <path d="M8 4c-2 0-3.5 1.2-3.5 3 0 1 0.5 1.9 1.2 2.6 
           C6.2 10 6.7 10.5 7.5 10.7c0.2 0.1 0.3 0.1 0.5 0.1
           s0.3 0 0.5-0.1c0.8-0.2 1.3-0.7 1.8-1.1
           C10.8 9 11.5 8.1 11.5 7c0-1.8-1.5-3-3.5-3z" 
           fill="#ffffff" opacity="0.95"/>
  
  <!-- Puntos de energía -->
  <circle cx="7" cy="6.5" r="0.4" fill="#ffffff" opacity="0.8"/>
  <circle cx="8" cy="6" r="0.4" fill="#ffffff" opacity="0.9"/>
  <circle cx="9" cy="6.5" r="0.4" fill="#ffffff" opacity="0.8"/>
  
  <!-- Corazón pequeño -->
  <path d="M7.2 8.5c0.3-0.4 0.5-0.4 0.8 0 0.3-0.4 0.5-0.4 0.8 0 
           C9 9 8.5 9.5 8 10 C7.5 9.5 7 9 7.2 8.5z" 
           fill="#f472b6" opacity="0.9"/>
  
  <!-- M pequeña -->
  <text x="8" y="13.5" text-anchor="middle" font-family="serif" font-size="3" 
        fill="#ffffff" opacity="0.7" font-weight="bold">M</text>
</svg>
